<svg width="175" height="50" viewBox="0 0 175 50" fill="none" xmlns="http://www.w3.org/2000/svg">
<path fill-rule="evenodd" clip-rule="evenodd" d="M29.5064 7.95162C30.2672 8.63337 30.325 9.79587 29.6355 10.5481C24.1097 16.5773 19.3007 26.5585 17.5782 30.6138C17.297 31.2759 16.6515 31.7155 15.9256 31.7392C15.1996 31.7629 14.5262 31.3664 14.2014 30.724L9.73964 21.9005C9.28047 20.9925 9.6527 19.8883 10.571 19.4343C11.4894 18.9802 12.6061 19.3483 13.0652 20.2563L15.7746 25.6144C18.1729 20.6114 22.2338 13.1492 26.8804 8.07932C27.5699 7.32705 28.7456 7.26987 29.5064 7.95162Z" fill="#0034EE"/>
<path fill-rule="evenodd" clip-rule="evenodd" d="M7.43626 4.90196C6.06728 4.90196 4.95751 5.9993 4.95751 7.35294V14.951H0V7.35294C0 3.29202 3.32933 0 7.43626 0H15.3683V4.90196H7.43626ZM33.7111 4.90196H25.5312V0H33.7111C37.818 0 41.1473 3.29202 41.1473 7.35294V14.951H36.1898V7.35294C36.1898 5.9993 35.08 4.90196 33.7111 4.90196ZM4.95751 24.5098V32.3529C4.95751 33.7066 6.06728 34.8039 7.43626 34.8039H15.3683V39.7059H7.43626C3.32933 39.7059 0 36.4139 0 32.3529V24.5098H4.95751ZM36.1898 32.3529V24.5098H41.1473V32.3529C41.1473 36.4139 37.818 39.7059 33.7111 39.7059H25.5312V34.8039H33.7111C35.08 34.8039 36.1898 33.7066 36.1898 32.3529Z" fill="#404040"/>
<path d="M88.7393 12.7451H94.6883V35.7843H88.7393V12.7451Z" fill="#404040"/>
<path d="M135.836 2.94118H142.281V35.7843H135.836V2.94118Z" fill="#0034EE"/>
<path d="M158.145 2.94118H164.589V35.7843H158.145V2.94118Z" fill="#0034EE"/>
<path d="M147.733 9.31372L147.733 2.94117L175 2.94117L175 9.31372L147.733 9.31372Z" fill="#0034EE"/>
<path fill-rule="evenodd" clip-rule="evenodd" d="M62.4646 8.82353H74.3626C76.2792 8.82353 77.8329 10.3598 77.8329 12.2549C77.8329 14.15 76.2792 15.6863 74.3626 15.6863H62.4646V8.82353ZM56.5156 21.5686V2.94118H74.3626C79.5648 2.94118 83.7819 7.11107 83.7819 12.2549C83.7819 14.7871 82.76 17.0832 81.1016 18.7621C83.0509 20.593 84.2663 23.1807 84.2663 26.049C84.2663 31.5989 79.7162 36.098 74.1034 36.098H57V21.5686H56.5156ZM62.949 21.8824H74.1034C76.4307 21.8824 78.3173 23.7478 78.3173 26.049C78.3173 28.3502 76.4307 30.2157 74.1034 30.2157H62.949V21.8824Z" fill="#404040"/>
<path d="M95.1837 6.37255C95.1837 8.26764 93.63 9.80392 91.7134 9.80392C89.7969 9.80392 88.2432 8.26764 88.2432 6.37255C88.2432 4.47746 89.7969 2.94118 91.7134 2.94118C93.63 2.94118 95.1837 4.47746 95.1837 6.37255Z" fill="#404040"/>
<path fill-rule="evenodd" clip-rule="evenodd" d="M120.192 9.1026L124.399 13.2621L120.281 17.3333C121.343 19.0702 121.954 21.1067 121.954 23.2843C121.954 26.5445 120.585 29.4884 118.383 31.584C120.822 33.4418 122.45 36.1732 122.45 39.4608C122.45 45.7474 116.497 50 110.304 50C104.111 50 98.1582 45.7474 98.1582 39.4608H104.107C104.107 41.5667 106.367 44.1177 110.304 44.1177C114.241 44.1177 116.501 41.5667 116.501 39.4608C116.501 37.3549 114.241 34.8039 110.304 34.8039C103.87 34.8039 98.654 29.6464 98.654 23.2843C98.654 16.9222 103.87 11.7647 110.304 11.7647C112.377 11.7647 114.323 12.3 116.01 13.2383L120.192 9.1026ZM110.304 28.9216C113.453 28.9216 116.005 26.3977 116.005 23.2843C116.005 20.1709 113.453 17.6471 110.304 17.6471C107.155 17.6471 104.603 20.1709 104.603 23.2843C104.603 26.3977 107.155 28.9216 110.304 28.9216Z" fill="#404040"/>
</svg>
