<svg width="17" height="17" viewBox="0 0 17 17" fill="none" xmlns="http://www.w3.org/2000/svg">
<path d="M5.66666 5.40343C6.00768 5.18654 6.4623 5.38738 6.5292 5.78876L6.68723 6.73699C6.72389 6.95694 6.62815 7.17795 6.44261 7.30164L5.8748 7.68018C5.73935 7.2215 5.66666 6.7359 5.66666 6.23332V5.40343Z" fill="white"/>
<path d="M10.7666 11.3333C10.2641 11.3333 9.77848 11.2606 9.3198 11.1252L9.69834 10.5574C9.82203 10.3718 10.043 10.2761 10.263 10.3127L11.2112 10.4708C11.6126 10.5377 11.8134 10.9923 11.5965 11.3333H10.7666Z" fill="white"/>
<path fill-rule="evenodd" clip-rule="evenodd" d="M1.56284e-05 8.49999C1.56284e-05 3.80557 3.80559 0 8.5 0C13.1944 0 17 3.80557 17 8.49999C17 13.1944 13.1944 17 8.5 17C6.71397 17 5.0553 16.4485 3.6868 15.5068L0.820102 16.9401C0.601942 17.0492 0.338459 17.0065 0.165988 16.834C-0.00648237 16.6615 -0.0492398 16.398 0.0598401 16.1799L1.49319 13.3132C0.551461 11.9447 1.56284e-05 10.286 1.56284e-05 8.49999ZM4.79307 4.62356L5.02725 4.46744C6.05368 3.78315 7.4443 4.38561 7.64711 5.60244L7.80515 6.55067C7.91512 7.21053 7.62788 7.87355 7.07127 8.24463L6.32528 8.74196C6.78177 9.54841 7.45157 10.2182 8.25802 10.6747L8.75535 9.92871C9.12643 9.37209 9.78945 9.08485 10.4493 9.19483L11.3975 9.35286C12.6144 9.55567 13.2168 10.9463 12.5325 11.9727L12.3761 12.2073C12.2752 12.3634 12.0996 12.4666 11.9 12.4666H10.7666C7.32408 12.4666 4.53333 9.67589 4.53333 6.23332V5.09999C4.53333 4.90014 4.63679 4.72445 4.79307 4.62356Z" fill="white"/>
<rect x="3.40039" y="3.40002" width="10.2" height="10.2" fill="white"/>
<path d="M5.85542 4.53333C5.12518 4.53333 4.5332 5.1253 4.5332 5.85555V6.91332C4.5332 9.98034 7.01951 12.4666 10.0865 12.4666H11.1443C11.8745 12.4666 12.4665 11.8747 12.4665 11.1444V10.4135C12.4665 10.113 12.2967 9.83833 12.028 9.70394L10.7502 9.06506C10.3184 8.84916 9.79548 9.06576 9.64281 9.52377L9.48533 9.99622C9.42549 10.1757 9.24135 10.2826 9.0558 10.2455C7.89443 10.0132 6.98663 9.10541 6.75436 7.94405C6.71725 7.7585 6.82411 7.57436 7.00362 7.51452L7.58997 7.31907C7.98324 7.18798 8.20928 6.77621 8.10874 6.37404L7.79879 5.13425C7.7105 4.78108 7.39318 4.53333 7.02914 4.53333H5.85542Z" fill="#0034EE"/>
</svg>
